<svg xmlns="http://www.w3.org/2000/svg" width="820" height="460" viewBox="0 0 820 460" font-family="'Segoe UI',system-ui,sans-serif">
  <defs>
    <linearGradient id="bg" x1="0" y1="0" x2="1" y2="1">
      <stop offset="0" stop-color="#17141f"/><stop offset="1" stop-color="#0e0c14"/>
    </linearGradient>
    <clipPath id="round"><rect width="820" height="460" rx="14"/></clipPath>
  </defs>
  <g clip-path="url(#round)">
    <rect width="820" height="460" fill="url(#bg)"/>

    <!-- tab bar -->
    <rect width="820" height="40" fill="#1e1a29"/>
    <circle cx="20" cy="20" r="5" fill="#3ac07a"/>
    <rect x="36" y="8" width="150" height="24" rx="6" fill="#2a2438"/>
    <text x="52" y="24" fill="#e7e2f0" font-size="13">🟢 bobik_stream</text>
    <rect x="196" y="8" width="120" height="24" rx="6" fill="#171320"/>
    <text x="210" y="24" fill="#9a92ad" font-size="13">⚫ another_ch</text>
    <text x="770" y="24" fill="#9a92ad" font-size="15">✉ 🔔 ⚙</text>

    <!-- pane header -->
    <rect y="40" width="560" height="30" fill="#191524"/>
    <text x="16" y="60" fill="#cbb6ff" font-size="13" font-weight="700">bobik_stream</text>
    <rect x="118" y="46" width="42" height="18" rx="4" fill="#c0392b"/>
    <text x="126" y="59" fill="#fff" font-size="11" font-weight="700">LIVE</text>
    <text x="185" y="59" fill="#8f88a3" font-size="11">👁 1 234 · ⏱ 2h 14m · Готуємось до ранкеду</text>

    <!-- mod toolbar -->
    <rect y="70" width="560" height="30" fill="#151120"/>
    <g font-size="11" fill="#d6d0e4">
      <rect x="12" y="76" width="66" height="18" rx="4" fill="#2a2438"/><text x="20" y="89">🚨 Рейд</text>
      <rect x="84" y="76" width="86" height="18" rx="4" fill="#2a2438"/><text x="92" y="89">📣 Оголош.</text>
      <rect x="176" y="76" width="70" height="18" rx="4" fill="#2a2438"/><text x="184" y="89">⏱ Режими</text>
    </g>

    <!-- chat messages -->
    <g font-size="14">
      <text x="16" y="128"><tspan fill="#ff6fb5" font-weight="700">Bobik069</tspan><tspan fill="#cfc8dd">: привіт усім, погнали 💜</tspan></text>
      <text x="16" y="158"><tspan fill="#59a9ff" font-weight="700">Bobik069</tspan><tspan fill="#cfc8dd">: цей клятч був неймовірний</tspan></text>
      <rect x="8" y="170" width="544" height="26" rx="6" fill="#241a2e"/>
      <text x="16" y="188"><tspan fill="#a970ff" font-weight="700">🔴 Bobik069</tspan><tspan fill="#a970ff" font-weight="600"> Виділити повідомлення</tspan><tspan fill="#8f88a3"> · 500</tspan></text>
      <text x="16" y="218"><tspan fill="#8bd450" font-weight="700">Bobik069</tspan><tspan fill="#cfc8dd">: </tspan><tspan fill="#cfc8dd">Kappa</tspan><tspan fill="#cfc8dd"> так тримати!</tspan></text>
      <text x="16" y="248"><tspan fill="#f0a500" font-weight="700">Bobik069</tspan><tspan fill="#cfc8dd">: коли наступний стрім?</tspan></text>
      <text x="16" y="278"><tspan fill="#ff6fb5" font-weight="700">Bobik069</tspan><tspan fill="#cfc8dd">: GG PogChamp 🎉</tspan></text>
      <!-- hover mod buttons on a row -->
      <rect x="470" y="228" width="82" height="20" rx="6" fill="#2a2438" stroke="#3a3350"/>
      <text x="480" y="242" font-size="11" fill="#d6d0e4">⏱ 🔨 🗑 ↩</text>
    </g>

    <!-- input -->
    <rect y="410" width="560" height="50" fill="#191524"/>
    <rect x="12" y="420" width="470" height="30" rx="8" fill="#0f0c17" stroke="#33304a"/>
    <text x="24" y="440" fill="#6f6885" font-size="13">Написати повідомлення…</text>
    <rect x="490" y="420" width="58" height="30" rx="8" fill="#7a5cff"/>
    <text x="502" y="440" fill="#fff" font-size="13" font-weight="700">Send</text>

    <!-- highlights sidebar -->
    <rect x="560" y="40" width="260" height="420" fill="#141020"/>
    <g font-size="12">
      <rect x="572" y="52" width="76" height="22" rx="6" fill="#7a5cff"/><text x="584" y="67" fill="#fff">Виділені</text>
      <text x="660" y="67" fill="#9a92ad">Звернення</text>
      <text x="748" y="67" fill="#9a92ad">Редімки</text>
    </g>
    <g font-size="12.5">
      <rect x="568" y="86" width="244" height="34" rx="6" fill="#1c1730"/>
      <text x="578" y="100"><tspan fill="#59a9ff" font-weight="700">Bobik069</tspan></text>
      <text x="578" y="114" fill="#b7b0c8">згадав тебе: @you красава</text>

      <rect x="568" y="126" width="244" height="34" rx="6" fill="#1c1730"/>
      <text x="578" y="140"><tspan fill="#a970ff" font-weight="700">🔴 Bobik069</tspan></text>
      <text x="578" y="154" fill="#b7b0c8">Виділити повідомлення · 500</text>

      <rect x="568" y="166" width="244" height="34" rx="6" fill="#1c1730"/>
      <text x="578" y="180"><tspan fill="#8bd450" font-weight="700">Bobik069</tspan></text>
      <text x="578" y="194" fill="#b7b0c8">Kappa так тримати!</text>
    </g>
  </g>
</svg>
